{"title":"Mot naturen (2014).DVDRip.x264-[L.I.]","uid":12593385,"size":1126981138,"categoryP":"video","categoryS":"movies","magnet":"?xt=urn:btih:ba6bbe675ef1ba5713acf6d7376a2ba6859cfee7&amp;dn=Mot+naturen+%282014%29.DVDRip.x264-%5BL.I.%5D&amp;tr=udp%3A%2F%2Ftracker.leechers-paradise.org%3A6969&amp;tr=udp%3A%2F%2Fzer0day.ch%3A1337&amp;tr=udp%3A%2F%2Fopen.demonii.com%3A1337&amp;tr=udp%3A%2F%2Ftracker.coppersurfer.tk%3A6969&amp;tr=udp%3A%2F%2Fexodus.desync.com%3A6969","seeders":8,"leechers":0,"uploader":"noriegaRJ","files":2,"time":1445197101,"description":"Title: Mot Naturen aka Out of Nature\r\n\r\nRelease: Mot naturen (2014).DVDRip.x264-[L.I.]\r\n\r\n\r\nIMDB Link:                                                        \nhttp://www.imdb.com/title/tt3596492/\r\n\r\n\r\nPlot: A journey inside Martin's head. He's on a weekend mountain trip, and we get to know his thoughts. Unsensored, essential, existential and silly about feelings and fantasies. A recognizable film about being human, and how we tick and think.\r\n\r\n\r\n\r\nGeneral\r\nComplete name                            : Mot naturen (2014).DVDRip.x264-[L.I.]\r\nFormat                                   : Matroska\r\nFormat version                           : Version 4 / Version 2\r\nFile size                                : 1.05 GiB\r\nDuration                                 : 1h 16mn\r\nOverall bit rate                         : 1 956 Kbps\r\nEncoded date                             : UTC 2015-10-10 16:07:56\r\nWriting application                      : mkvmerge v8.1.0 ('Psychedelic Postcard') 64bit\r\nWriting library                          : Lavf55.12.0\r\n\r\nVideo\r\nID                                       : 1\r\nFormat                                   : AVC\r\nFormat/Info                              : Advanced Video Codec\r\nFormat profile                           :   \r\nFormat settings, CABAC                   : Yes\r\nFormat settings, ReFrames                : 9 frames\r\nCodec ID                                 : V_MPEG4/ISO/AVC\r\nDuration                                 : 1h 16mn\r\nBit rate                                 : 1 725 Kbps\r\nWidth                                    : 720 pixels\r\nHeight                                   : 576 pixels\r\nDisplay aspect ratio                     : 16:9\r\nFrame rate mode                          : Constant\r\nFrame rate                               : 25.000 fps\r\nStandard                                 : PAL\r\nColor space                              : YUV\r\nChroma subsampling                       : 4:2:0\r\nBit depth                                : 8 bits\r\nScan type                                : Progressive\r\nBits/(Pixel*Frame)                       : 0.166\r\nStream size                              : 948 MiB (88%)\r\nWriting library                          : x264 core 142 r2479 dd79a61\r\nDefault                                  : Yes\r\nForced                                   : No\r\nDURATION                                 : 01:16:48.760000000\r\nNUMBER_OF_FRAMES                         : 115219\r\nNUMBER_OF_BYTES                          : 1015322900\r\n_STATISTICS_WRITING_APP                  : mkvmerge v8.1.0 ('Psychedelic Postcard') 64bit\r\n_STATISTICS_WRITING_DATE_UTC             : 2015-10-10 16:07:56\r\n_STATISTICS_TAGS                         : BPS DURATION NUMBER_OF_FRAMES NUMBER_OF_BYTES\r\nColor primaries                          : BT.601 PAL\r\nTransfer characteristics                 : BT.709\r\nMatrix coefficients                      : BT.601\r\n\r\nAudio\r\nID                                       : 2\r\nFormat                                   : AC-3\r\nFormat/Info                              : Audio Coding 3\r\nMode extension                           : CM (complete main)\r\nFormat settings, Endianness              : Big\r\nCodec ID                                 : A_AC3\r\nDuration                                 : 1h 16mn\r\nBit rate mode                            : Constant\r\nBit rate                                 : 192 Kbps\r\nChannel count                            : 2 channels\r\nChannel positions                        : Front: L R\r\nSampling rate                            : 48.0 KHz\r\nBit depth                                : 16 bits\r\nCompression mode                         : Lossy\r\nStream size                              : 105 MiB (10%)\r\nTitle                                    : Stereo\r\nLanguage                                 : Norwegian\r\nDefault                                  : Yes\r\nForced                                   : No\r\nDURATION                                 : 01:16:48.736000000\r\nNUMBER_OF_FRAMES                         : 144023\r\nNUMBER_OF_BYTES                          : 110609664\r\n_STATISTICS_WRITING_APP                  : mkvmerge v8.1.0 ('Psychedelic Postcard') 64bit\r\n_STATISTICS_WRITING_DATE_UTC             : 2015-10-10 16:07:56\r\n_STATISTICS_TAGS                         : BPS DURATION NUMBER_OF_FRAMES NUMBER_OF_BYTES\r\n\r\n\r\n\r\nThanks to those helping me seed. Leechers remember, the community depends on you. If nobody shares, the freebies go away. Remember, the only reason you can download this free movie is because others are generous enough to keep sharing it with you. If nobody shares, everybody loses, so even if its for an extra hour or two after you get it, remember, others want to see it too, and they can't without you.\r\n\r\n\r\nSEE MY OTHERS UPLOADS:                                                                                \nhttp://thepiratebay.se/user/noriegaRJ\r\n\r\nAND SEE THIS ANOTHERS UPLOADS FROM &quot;HORiZON-ArtSubs&quot;:                                \nhttp://thepiratebay.se/user/artsubs                                \nhttp://thepiratebay.se/user/lletaif","torrent":{"xt":"urn:btih:ba6bbe675ef1ba5713acf6d7376a2ba6859cfee7","amp;dn":"Mot+naturen+%282014%29.DVDRip.x264-%5BL.I.%5D","amp;tr":["udp%3A%2F%2Ftracker.leechers-paradise.org%3A6969","udp%3A%2F%2Fzer0day.ch%3A1337","udp%3A%2F%2Fopen.demonii.com%3A1337","udp%3A%2F%2Ftracker.coppersurfer.tk%3A6969","udp%3A%2F%2Fexodus.desync.com%3A6969"],"infoHash":"ba6bbe675ef1ba5713acf6d7376a2ba6859cfee7","infoHashBuffer":{"type":"Buffer","data":[186,107,190,103,94,241,186,87,19,172,246,215,55,106,43,166,133,156,254,231]},"announce":[],"urlList":[]}}